<svg xmlns="http://www.w3.org/2000/svg" width="24" height="24" fill="none" viewBox="0 0 24 24" id="send">
  <path fill="#000" fill-rule="evenodd" d="M3.48935 7.06989C2.63559 4.93551 4.87248 2.8773 6.92858 3.90535L18.6458 9.76397C20.4884 10.6853 20.4884 13.3148 18.6458 14.2361L6.92857 20.0947C4.87247 21.1228 2.6356 19.0646 3.48935 16.9302L5.4614 12L3.48935 7.06989ZM6.48136 4.79977C5.2477 4.18294 3.90557 5.41788 4.41782 6.6985L6.46416 11.8143C6.51184 11.9335 6.51184 12.0665 6.46416 12.1857L4.41782 17.3016C3.90557 18.5822 5.2477 19.8171 6.48136 19.2003L18.1986 13.3417C19.3042 12.7889 19.3042 11.2112 18.1986 10.6584L6.48136 4.79977Z" clip-rule="evenodd"></path>
  <path fill="#000" fill-rule="evenodd" d="M5.5 11.5H10V12.5H5.5V11.5Z" clip-rule="evenodd"></path>
</svg>
